<svg width="40" height="40" viewBox="0 0 40 40" fill="none" xmlns="http://www.w3.org/2000/svg">
<rect width="40" height="40" rx="20" fill="black"/>
<path d="M10.9101 25.98C11.9368 26.33 13.0568 26.61 14.2701 26.82C15.5068 27.0067 16.7318 27.1 17.9451 27.1C19.6018 27.1 20.8268 27.03 21.6201 26.89C22.4368 26.7267 22.9735 26.4817 23.2301 26.155C23.4868 25.8283 23.6151 25.4083 23.6151 24.895C23.6151 24.4517 23.5218 24.1017 23.3351 23.845C23.1485 23.5883 22.7868 23.39 22.2501 23.25C21.7135 23.0867 20.9201 22.9583 19.8701 22.865L17.5601 22.655C15.8335 22.4917 14.4685 22.13 13.4651 21.57C12.4851 21.01 11.7851 20.2633 11.3651 19.33C10.9685 18.3733 10.7701 17.23 10.7701 15.9C10.7701 14.01 11.2251 12.5517 12.1351 11.525C13.0685 10.475 14.6318 9.78666 16.8251 9.46V5.19H22.4251V9.25C24.7585 9.39 26.7418 9.78666 28.3751 10.44L28.2701 15.2L28.1651 15.34C25.8551 14.5233 23.4401 14.115 20.9201 14.115C19.7068 14.115 18.7735 14.185 18.1201 14.325C17.4668 14.4417 17.0118 14.64 16.7551 14.92C16.4985 15.2 16.3701 15.5967 16.3701 16.11C16.3701 16.6233 16.4518 17.0083 16.6151 17.265C16.8018 17.5217 17.1635 17.72 17.7001 17.86C18.2368 17.9767 19.0185 18.0933 20.0451 18.21L22.2501 18.455C24.1168 18.665 25.5518 19.0383 26.5551 19.575C27.5585 20.1117 28.2468 20.835 28.6201 21.745C29.0168 22.6317 29.2151 23.7167 29.2151 25C29.2151 26.9367 28.6901 28.4767 27.6401 29.62C26.6135 30.74 24.8751 31.4633 22.4251 31.79V35.85H16.8251V31.93C15.6818 31.8833 14.6201 31.7783 13.6401 31.615C12.6601 31.4517 11.7035 31.2533 10.7701 31.02V26.085L10.9101 25.98Z" fill="url(#paint0_linear_29_16)"/>
<defs>
<linearGradient id="paint0_linear_29_16" x1="20" y1="4.18605" x2="20" y2="38.1395" gradientUnits="userSpaceOnUse">
<stop stop-color="#93FF51"/>
<stop offset="1" stop-color="#8F8F8F"/>
</linearGradient>
</defs>
</svg>
